# xmcd
#
# Track frame offsets:
#	150
#	19154
#	37881
#	59171
#	77278
#	92662
#	111322
#	125919
#	150276
#	165788
#
# Disc length: 2438 seconds
#
# Revision: 0
# Processed by: cddbd v1.4PL0 Copyright (c) Steve Scherf et al.
# Submitted via: audiograbber 1.82.02
#
DISCID=6f09840a
DTITLE=Mithat Körler - Aþk and  Aþk
DYEAR=2003
DGENRE=Pop
TTITLE0=Sürgündeyim
TTITLE1=Kýskananlar Çatlasýn
TTITLE2=Senden Vazgecemem
TTITLE3=Göz Göze Gelmek
TTITLE4=Son Kararým
TTITLE5=Çaresizim
TTITLE6=Yeni Bir Aþk Arýyorum
TTITLE7=Dönemem
TTITLE8=Hoplayýn Kýzlar
TTITLE9=Yaylalar
EXTD=metin@metin.nom.tr
EXTT0=
EXTT1=
EXTT2=
EXTT3=
EXTT4=
EXTT5=
EXTT6=
EXTT7=
EXTT8=
EXTT9=
PLAYORDER=
